<svg width="13" height="12" viewBox="0 0 13 12" fill="none" xmlns="http://www.w3.org/2000/svg">
<path d="M5.78676 1.1953C6.01127 0.504318 6.98883 0.504317 7.21334 1.1953L8.01552 3.66415C8.11592 3.97316 8.40389 4.18238 8.72881 4.18238H11.3247C12.0513 4.18238 12.3533 5.1121 11.7655 5.53915L9.66542 7.06498C9.40256 7.25596 9.29256 7.59449 9.39297 7.9035L10.1951 10.3724C10.4197 11.0633 9.6288 11.6379 9.04102 11.2109L6.94089 9.68505C6.67802 9.49406 6.32208 9.49406 6.05921 9.68505L3.95908 11.2109C3.3713 11.6379 2.58044 11.0633 2.80495 10.3724L3.60713 7.9035C3.70753 7.59449 3.59754 7.25596 3.33468 7.06498L1.23455 5.53915C0.646764 5.1121 0.948845 4.18238 1.67539 4.18238H4.27129C4.59621 4.18238 4.88417 3.97316 4.98458 3.66415L5.78676 1.1953Z" fill="#FEC654"/>
</svg>
